<svg id="Layer_1" data-name="Layer 1" xmlns="http://www.w3.org/2000/svg" viewBox="0 0 200 200"><defs><style>.cls-1,.cls-2,.cls-3,.cls-4{fill:none;stroke:#000;stroke-width:0.86px;}.cls-1,.cls-3{stroke-linecap:round;}.cls-1,.cls-4{stroke-linejoin:round;}.cls-2,.cls-3{stroke-miterlimit:10;}</style></defs><path d="M96.93,180.2c2.09.25,4.06,1.41,3.58,4.07l-23,.11v-7.69c0,.09,0,.17,0,.24s7.23.15,7.86,0l.28,0C87,177.05,92.59,179.69,96.93,180.2Z"/><path d="M59.24,183.93v.23l-12.06-.11-9.79-4.62L40.54,173l6.89,2.73c3.76,1.85,3.92,4.37,5.79,4.28C56.41,179.86,59,182.22,59.24,183.93Z"/><path d="M84,78.06c1.66,10.73,3.54,23.88,3.63,29l-39.11.07c.2-3.8,3.81-38,3.81-38s-10.53,16.37-16,12.09c-3.58-2.8-8.09-31.65-8.09-31.65l4.11-1.23c1.45,5.81,7.41,20.79,7.72,20.79s7-9.32,10.17-13.44c1.89-2.44,10.34-2.07,10.34-2.07.33-.82.5-1.56,1.3-2s6.88-1.12,10.22-.2a2.8,2.8,0,0,1,1.84,2.25s4.92-.2,7.87,1.42c3.35,1.82,24,43.19,24,43.19l-3.46,3.21v0Z"/><path d="M33.44,27.83a9.75,9.75,0,0,0-1.67-4.61c-2.21-2.69-4.69-1.85-6.87.24-4-1.85-8-3.32-8.7-2.11-.55,1,2.89,2.68,6.86,4.27,4.71,1.89,10.17,3.6,10.56,3.68Q33.55,28.58,33.44,27.83ZM37.6,16V32.92A2.46,2.46,0,0,1,35,35.23H32.62c-.17-1.34-.48-2.37-1-2.39-.76,0-1,.9-1.11,2.38H16.06a2.46,2.46,0,0,1-2.59-2.31V16a2.47,2.47,0,0,1,2.59-2.31H35A2.47,2.47,0,0,1,37.6,16Z"/><path d="M136.51,49.52c0,3.62-.06,5.88,0,6.13l-18.64-.09c-.39-2.16,1.21-3.1,2.9-3.3,3.52-.41,7.73-2.64,8.38-2.78Z"/><rect class="cls-1" x="117.87" y="55.52" width="18.63" height="1.53"/><path class="cls-1" d="M113.24,105.39a2.16,2.16,0,0,0,.14-1.81c-.21-.58-1.35-2.55-5.36-2.77"/><path class="cls-1" d="M113.94,103.72a2.14,2.14,0,0,0,.13-1.72c-.21-.55-1.7-2.62-5-2.72"/><path class="cls-1" d="M99.37,18.2c.58,1.82,1.24,3.71,1.81,5.46a36.06,36.06,0,0,1-8.37,2.56c-1.72.2-3.35,1.16-3,3.36l.26,1.65h18.79s0-5.24.11-13.07Z"/><path class="cls-2" d="M90,30.43c.8-3.14,4.28-.57,9.5-1.2,3-.37,6-2.32,9.25-2.11"/><path class="cls-3" d="M56.41,112.66c-1,5.38-6.33,7-11.22,6.16"/><rect class="cls-1" x="77.53" y="184.4" width="23.06" height="1.89"/><path class="cls-3" d="M47.61,175.8c2-1.66,14.51-23,22-43.48a107.65,107.65,0,0,0,4.93-17.12"/><path class="cls-3" d="M49.63,107.21C48.43,130,40.7,173,40.7,173"/><path class="cls-3" d="M69.64,132.27v0c1.84,10,7.14,40,7.86,44.37,0,.09,0,.17,0,.24s7.23.15,7.86,0c0,0,0,0,0,0,1.32-2.87,2.21-33.3,1.41-69.51"/><path class="cls-1" d="M85.68,176.94c1.35.11,6.91,2.75,11.25,3.26,2.09.25,4.06,1.41,3.58,4.07l-23,.11"/><polyline class="cls-2" points="77.5 176.68 77.5 176.69 77.5 184.2"/><polygon class="cls-1" points="37.39 179.43 37.39 179.43 36.33 181.47 46.74 186.15 59.25 186.05 59.25 184.16 59.24 184.16 47.18 184.05 37.39 179.43"/><path class="cls-1" d="M59.24,183.93c-.26-1.71-2.83-4.07-6-3.93-1.87.09-2-2.43-5.79-4.28L40.54,173l-3.15,6.44"/><path class="cls-3" d="M72.67,29.94c-.22-2.27-.49-5.63-2-7.45-4.81-5.84-11.13,5.4-12.23,9.05-1,3.41,3.54,11.38,4.9,12,2.07.93,5.14-.93,6.18-2.85"/><path class="cls-2" d="M72.49,51.46c.23-5.9.78-11.23.53-17.14"/><path class="cls-2" d="M63.92,43.46c-.4,2.71-.86,5.9-1.94,8.15"/><path class="cls-3" d="M71.81,31c3-4,4.79,1.49,3.66,2.85a2.43,2.43,0,0,1-3,.2"/><path class="cls-2" d="M62.15,24.71c-.34,0-8.26-1.94-7-4.09,1.38-2.44,16.44,6.1,17.38,6.56"/><path class="cls-3" d="M66.16,30.22a6.36,6.36,0,0,0,2.4.91"/><path class="cls-3" d="M73.07,31.8a2.43,2.43,0,0,0,1.53.69"/><circle cx="66.65" cy="32.43" r="0.42"/><circle cx="61.26" cy="31.45" r="0.42"/><path class="cls-3" d="M60.74,29.57a1.67,1.67,0,0,1,2.45.64c.26,1.09-.7,3.14-1.16,4.33-.31.81-.86,2.4.7,2.19"/><path class="cls-3" d="M65.57,40.35a1.75,1.75,0,0,1-2.7-.3"/><path class="cls-3" d="M33.62,29.3h0q-.07-.72-.18-1.47a9.75,9.75,0,0,0-1.67-4.61c-2.21-2.69-4.69-1.85-6.87.24a16.73,16.73,0,0,0-1.83,2.13"/><path class="cls-2" d="M33.64,29.3h0c-.39-.08-5.85-1.79-10.56-3.68-4-1.59-7.41-3.3-6.86-4.27.68-1.21,4.7.26,8.7,2.11,3.83,1.78,7.66,3.91,8.54,4.37l.14.07"/><path class="cls-1" d="M30.44,35.23H16.06a2.46,2.46,0,0,1-2.59-2.31V16a2.47,2.47,0,0,1,2.59-2.31H35A2.47,2.47,0,0,1,37.6,16V32.92A2.46,2.46,0,0,1,35,35.23H32.75"/><path class="cls-3" d="M32.67,41.56a31.68,31.68,0,0,0-.05-6.32c-.17-1.34-.48-2.37-1-2.39-.76,0-1,.9-1.11,2.38s-.05,3.82-.26,6.13"/><path class="cls-1" d="M103.89,35.36H90.49a2.46,2.46,0,0,1-2.59-2.31V16.14a2.46,2.46,0,0,1,2.59-2.3h19a2.45,2.45,0,0,1,2.58,2.3V33.05a2.45,2.45,0,0,1-2.58,2.31h-5.56Z"/><path class="cls-1" d="M131.07,63.27h-13.4A2.46,2.46,0,0,1,115.09,61V44.05a2.46,2.46,0,0,1,2.58-2.3h19a2.46,2.46,0,0,1,2.59,2.3V61a2.46,2.46,0,0,1-2.59,2.31h-5.56Z"/><path class="cls-2" d="M183.82,56.78c0,3.62-.06,5.88,0,6.13l-18.64-.08c-.39-2.16,1.21-3.11,2.9-3.3,3.52-.42,7.73-2.65,8.38-2.79Z"/><polygon class="cls-1" points="183.81 64.93 179.58 64.93 178.99 63.73 178.26 64.93 165.18 64.93 165.18 62.78 183.81 62.78 183.81 64.93"/><path class="cls-1" d="M178.39,70.53H165a2.46,2.46,0,0,1-2.59-2.3V51.32A2.46,2.46,0,0,1,165,49h18.95a2.46,2.46,0,0,1,2.59,2.31V68.23a2.46,2.46,0,0,1-2.59,2.3h-5.55Z"/><path class="cls-1" d="M162.23,35.25h-13.4a2.45,2.45,0,0,1-2.58-2.31V16a2.46,2.46,0,0,1,2.58-2.31h19A2.47,2.47,0,0,1,170.38,16V32.94a2.46,2.46,0,0,1-2.59,2.31h-5.56Z"/><path class="cls-4" d="M160.78,162.7H109.67c-2.4,0-4.35-2.83-4.35-6.32v-40.2c0-3.5,2-6.33,4.35-6.33h54.79c8.86,0,9.32,4,8.51,8.08l-8,40.2C164.42,160.84,162.71,162.7,160.78,162.7Z"/><path d="M155.05,177.81a4.21,4.21,0,1,1-4.2,4.21A4.2,4.2,0,0,1,155.05,177.81Zm2.06,4.21a2.06,2.06,0,1,0-2.06,2A2.06,2.06,0,0,0,157.11,182Z"/><path d="M114.53,177.81a4.21,4.21,0,1,1-4.2,4.21A4.2,4.2,0,0,1,114.53,177.81Zm2.06,4.21a2.06,2.06,0,1,0-2.06,2A2.06,2.06,0,0,0,116.59,182Z"/><circle class="cls-4" cx="155.05" cy="182.02" r="4.2"/><path class="cls-4" d="M118.74,182a4.21,4.21,0,1,1-4.21-4.21A4.2,4.2,0,0,1,118.74,182Z"/><path class="cls-4" d="M116.59,182a2.06,2.06,0,1,1-2.06-2.06A2.05,2.05,0,0,1,116.59,182Z"/><path class="cls-4" d="M157.11,182a2.06,2.06,0,1,1-2.06-2.06A2.05,2.05,0,0,1,157.11,182Z"/><path class="cls-4" d="M102.38,101.36c-1.43,1.42,0,5.72,2.85,6.29a2.29,2.29,0,0,0,2.31-1c.53-1.28-.84-2.21-2.32-1.37"/><path class="cls-3" d="M32.3,48.35c1.86-.59,3.54-6.67-1-6.86-.9,0-2.72-.18-3,1a.81.81,0,0,0,.51,1,5.91,5.91,0,0,0,1.33.17c.55,0,1.13.32.94.39-.85.31-1.2,1.48-1.25,2.27"/><path class="cls-3" d="M30.34,39.23c-.15-1.31-2.21-1-2.42,0-.62,3,.17,6.89,1.9,6.43"/><path class="cls-3" d="M27.74,40.35a1.05,1.05,0,0,0-2.1-.11c-.6,2.87.56,5.15,1.34,5.57a1.12,1.12,0,0,0,1.48-.59"/><path class="cls-3" d="M28.17,49.55c-1.51-.73-2.22-3.6-1.94-4.44"/><path class="cls-4" d="M111.36,104.93c-.41,0-.81-.06-1.16.25a1,1,0,0,0-.35.83c.1.35,1,.53,1.33.52a2.52,2.52,0,0,0,1.79-.8,7.11,7.11,0,0,0,1.41-4.13,3.08,3.08,0,0,0-1.91-3,10.11,10.11,0,0,0-6.63-.49"/><polyline class="cls-3" points="83.95 77.97 84.02 78.06 102.33 101.42"/><path class="cls-1" d="M102.33,101.45h0l3.46-3.21S85.15,56.86,81.8,55c-3-1.62-7.87-1.42-7.87-1.42a2.8,2.8,0,0,0-1.84-2.25c-3.34-.92-9.46-.26-10.22.2s-1,1.23-1.3,2c0,0-8.45-.37-10.34,2.07C47,59.81,40.37,69.13,40.06,69.13s-6.27-15-7.72-20.79l-4.11,1.23s4.51,28.85,8.09,31.65c5.5,4.28,16-12.09,16-12.09s-3.61,34.19-3.81,38l39.11-.07c-.09-5.11-2-18.26-3.63-29-.69-4.45-1.34-8.49-1.8-11.37"/><path class="cls-4" d="M110.54,106.53s-.1,2.42.73,3.25"/><path class="cls-4" d="M106.32,107.5a4.86,4.86,0,0,0,.87,3.25"/><path class="cls-4" d="M111.27,104.94c.7,0-.81-1.88-2.58-1.92-3.15-.07-3.73,1.67-3.06,2.24"/><path class="cls-4" d="M114.61,177.71v-7.16a4.87,4.87,0,0,1,4.88-4.84h30.92a4.87,4.87,0,0,1,4.88,4.84v7.21"/><polyline class="cls-4" points="148.19 97.89 148.19 86.34 167.18 86.34 167.18 110.04"/><path class="cls-4" d="M135.87,109.85a9.46,9.46,0,0,1-.56-3.21,9.34,9.34,0,1,1,18.08,3.27"/><polyline class="cls-4" points="119.74 109.85 119.74 94.19 139.66 94.19 139.66 98.65"/><rect class="cls-4" x="126.28" y="88.95" width="7.06" height="5.24"/><line class="cls-4" x1="105.25" y1="117.12" x2="173.04" y2="117.12"/><line class="cls-4" x1="105.25" y1="126.11" x2="171.35" y2="126.11"/><line class="cls-4" x1="105.25" y1="135.1" x2="169.62" y2="135.1"/><line class="cls-4" x1="105.25" y1="144.09" x2="167.82" y2="144.09"/><line class="cls-4" x1="105.25" y1="153.08" x2="166.07" y2="153.08"/><line class="cls-4" x1="113.53" y1="163.08" x2="113.53" y2="109.78"/><line class="cls-4" x1="122.53" y1="163.08" x2="122.53" y2="110.01"/><line class="cls-4" x1="131.52" y1="163.08" x2="131.52" y2="110.06"/><line class="cls-4" x1="140.54" y1="163.08" x2="140.54" y2="109.96"/><line class="cls-4" x1="149.5" y1="163.08" x2="149.5" y2="109.75"/><line class="cls-4" x1="158.12" y1="163.08" x2="158.12" y2="109.72"/><line class="cls-4" x1="167.14" y1="147.23" x2="167.14" y2="109.99"/><polyline class="cls-1" points="158.4 20.35 152.8 20.35 151.43 26.14 148.51 27.61 158.4 27.61"/><polyline class="cls-1" points="158.12 20.35 163.73 20.35 165.09 26.14 168.01 27.61 158.12 27.61"/></svg>